<?xml version="1.0" encoding="UTF-8"?>
<svg width="96px" height="96px" viewBox="0 0 96 96" version="1.1" xmlns="http://www.w3.org/2000/svg" xmlns:xlink="http://www.w3.org/1999/xlink">
    <!-- Generator: Sketch 53.2 (72643) - https://sketchapp.com -->
    <title>icon</title>
    <desc>Created with Sketch.</desc>
    <g id="icon" stroke="none" stroke-width="1" fill="none" fill-rule="evenodd">
        <path d="M48,95.25 C74.0954544,95.25 95.25,74.0954544 95.25,48 C95.25,21.9045456 74.0954544,0.75 48,0.75 C21.9045456,0.75 0.75,21.9045456 0.75,48 C0.75,74.0954544 21.9045456,95.25 48,95.25 Z M55.8232279,61.6334068 L53.3953087,55.534 L37.653972,55.534 L35.3463064,61.6282523 C34.9773153,62.6614273 34.814,63.302126 34.814,63.808 C34.814,65.2177072 35.9851916,65.8191299 39.4794191,66.0030366 L40.19,66.0404356 L40.19,69.934 L25.25,69.934 L25.25,66.1281372 L25.8634331,66.0145385 C27.9249102,65.6327835 28.5783698,65.2853746 29.0127116,64.1128991 L42.6012617,29.0620595 L40.2470098,23.25 L53.4513267,23.25 L53.640129,23.7208865 L69.8360092,64.1147657 C70.2740383,65.2536415 71.0135445,65.651126 73.043843,66.0136793 L73.662,66.1240645 L73.662,69.934 L51.106,69.934 L51.106,66.028777 L51.8287453,66.0024954 C55.1866428,65.88039 56.354,65.2806469 56.354,63.872 C56.354,63.3761194 56.2081738,62.7899474 55.8232279,61.6334068 Z M45.343532,35.2835555 L39.3759579,50.962 L51.5823594,50.962 L45.343532,35.2835555 Z" id="Combined-Shape" stroke="#0055FF" stroke-width="1.5" fill="#0055FF"></path>
        <g id="Group" transform="translate(61.500000, 36.000000)"></g>
    </g>
</svg>